<svg xmlns="http://www.w3.org/2000/svg" viewBox="0 0 64 64" role="img" aria-label="RM monogram">
  <defs>
    <linearGradient id="bg" x1="0%" y1="0%" x2="100%" y2="100%">
      <stop offset="0%" stop-color="#162233" />
      <stop offset="100%" stop-color="#244b70" />
    </linearGradient>
    <linearGradient id="accent" x1="0%" y1="0%" x2="100%" y2="100%">
      <stop offset="0%" stop-color="#be9c5f" />
      <stop offset="100%" stop-color="#b65b40" />
    </linearGradient>
  </defs>
  <rect width="64" height="64" rx="18" fill="url(#bg)" />
  <circle cx="32" cy="32" r="21.5" fill="none" stroke="url(#accent)" stroke-width="1.8" opacity="0.85" />
  <path
    d="M19 43V21h7.4c2.4 0 4.2.5 5.4 1.5 1.2 1 1.8 2.4 1.8 4.2 0 1.2-.3 2.2-.9 3.1-.6.9-1.5 1.6-2.7 2.1l4.9 11.1h-5.2l-4.2-10h-1.8v10H19Zm4.8-13.8h2.1c1 0 1.8-.2 2.3-.7.5-.5.8-1.1.8-1.9 0-.9-.3-1.5-.8-1.9-.5-.4-1.3-.6-2.3-.6h-2.1v5.1Z"
    fill="#f6efe6"
  />
  <path d="M35 43V21h4.7l5.1 9.4 5.2-9.4H55v22h-4.8V29.3l-5.1 9.1h-.6l-5.1-9.1V43H35Z" fill="#f6efe6" />
</svg>
